<svg width="24" height="14" viewBox="0 0 24 14" fill="none" xmlns="http://www.w3.org/2000/svg">
<path d="M23.6486 6.56037C23.5958 6.49427 22.3301 4.92377 20.2786 3.33784C19.067 2.40118 17.8302 1.65338 16.6029 1.11516C15.111 0.460966 13.6279 0.116434 12.1913 0.0882148C12.1277 0.0864804 12.064 0.0854492 12 0.0854492C11.9361 0.0854492 11.8724 0.0864804 11.8089 0.0882148C10.3723 0.116387 8.88918 0.460919 7.39728 1.11516C6.16985 1.65333 4.93314 2.40118 3.72151 3.33784C1.67002 4.92377 0.404439 6.49432 0.351564 6.56037L0 6.99968L0.35147 7.43899C0.404345 7.50509 1.66998 9.07559 3.72147 10.6615C4.9331 11.5982 6.16985 12.346 7.39723 12.8842C8.88918 13.5384 10.3722 13.8829 11.8088 13.9111C11.8724 13.9129 11.9361 13.9139 12 13.9139C12.0639 13.9139 12.1276 13.9129 12.1912 13.9111C13.6278 13.883 15.1109 13.5384 16.6028 12.8842C17.8302 12.346 19.0669 11.5982 20.2785 10.6615C22.33 9.07559 23.5957 7.50509 23.6485 7.43899L24 6.99968L23.6486 6.56037ZM6.10432 10.6079C5.55171 10.2652 5.04888 9.9088 4.60774 9.56896C3.31009 8.56925 2.33307 7.55792 1.82987 6.99968C2.33312 6.4414 3.31009 5.43011 4.60774 4.4304C5.04888 4.09051 5.55166 3.73417 6.10432 3.39146C5.45866 4.4425 5.08586 5.67831 5.08586 6.99968C5.08586 8.32104 5.45876 9.55686 6.10432 10.6079ZM12.1687 12.5046C12.1125 12.5058 12.0564 12.5074 12 12.5074C11.9437 12.5074 11.8876 12.5057 11.8314 12.5046C8.87221 12.4151 6.49235 9.98024 6.49235 6.99968C6.49235 4.01912 8.87221 1.58424 11.8314 1.49475C11.8876 1.49358 11.9437 1.49194 12 1.49194C12.0564 1.49194 12.1125 1.49363 12.1687 1.49475C15.1279 1.58419 17.5077 4.01912 17.5077 6.99968C17.5077 9.98024 15.1279 12.4151 12.1687 12.5046ZM19.3923 9.56896C18.9512 9.90885 18.4484 10.2652 17.8957 10.6079C18.5414 9.55686 18.9142 8.32104 18.9142 6.99968C18.9142 5.67836 18.5413 4.4425 17.8957 3.39146C18.4483 3.73421 18.9511 4.09056 19.3923 4.4304C20.69 5.43011 21.6669 6.44135 22.1702 6.99968C21.6669 7.55801 20.69 8.56925 19.3923 9.56896Z" fill="black"/>
<path d="M12 3.0011C9.79489 3.0011 8.00088 4.79511 8.00088 7.00021C8.00088 9.20531 9.79489 10.9993 12 10.9993C14.2051 10.9993 15.9991 9.20531 15.9991 7.00021C15.9991 4.79511 14.2051 3.0011 12 3.0011ZM12 9.59288C10.5704 9.59288 9.40733 8.42981 9.40733 7.00021C9.40733 5.57061 10.5704 4.40755 12 4.40755C13.4296 4.40755 14.5927 5.57061 14.5927 7.00021C14.5927 8.42981 13.4296 9.59288 12 9.59288Z" fill="black"/>
</svg>
