<svg width="11" height="18" viewBox="0 0 11 18" fill="none" xmlns="http://www.w3.org/2000/svg">
<path d="M8.488 2.3119C7.752 2.3599 7.216 2.5839 6.88 2.9839C6.544 3.3839 6.376 3.9599 6.376 4.7119V5.2639H8.416C9.312 5.2639 9.76 5.6399 9.76 6.3919C9.76 7.1439 9.312 7.5199 8.416 7.5199H6.376V15.7039C6.376 16.1679 6.232 16.5199 5.944 16.7599C5.672 16.9999 5.32 17.1199 4.888 17.1199C4.456 17.1199 4.096 16.9999 3.808 16.7599C3.52 16.5199 3.376 16.1679 3.376 15.7039V7.5199H2.176C1.28 7.5199 0.832001 7.1439 0.832001 6.3919C0.832001 5.6399 1.28 5.2639 2.176 5.2639H3.376V5.0959C3.376 3.5919 3.768 2.4159 4.552 1.5679C5.352 0.703904 6.472 0.215904 7.912 0.103903L8.536 0.0559041C9.176 0.00790373 9.624 0.0799038 9.88 0.271904C10.152 0.447904 10.288 0.727903 10.288 1.1119C10.288 1.7999 9.896 2.1839 9.112 2.2639L8.488 2.3119Z" fill="white"/>
</svg>
