<svg width="25" height="25" viewBox="0 0 25 25" fill="none" xmlns="http://www.w3.org/2000/svg">
<path d="M12.5044 0.00244154C7.50287 0.00171253 2.98256 2.98302 1.01396 7.58086L0.858154 7.63252L0.918558 7.81373C-1.6734 14.2065 1.40768 21.49 7.80041 24.082C9.29348 24.6873 10.8896 24.9981 12.5007 24.9972C19.4028 24.9983 24.999 19.4038 25 12.5017C25.0011 5.59961 19.4066 0.00343092 12.5044 0.00244154ZM22.3072 18.8008L21.6655 18.1595V16.6656C21.6662 16.6012 21.652 16.5374 21.6238 16.4794L19.9992 13.2347V11.6667C19.9992 11.5274 19.9297 11.3974 19.8138 11.3201L18.5641 10.4869C18.4661 10.4215 18.345 10.4006 18.2308 10.4294L16.7003 10.8119L14.1296 9.70875L13.7759 7.23093L14.7561 6.25114H16.8602L17.5684 7.3155C17.6324 7.41121 17.7331 7.47625 17.8467 7.49505L20.3462 7.91163C20.4132 7.92287 20.4818 7.91741 20.5461 7.8958L22.8482 7.12846C24.779 10.8337 24.5724 15.2901 22.3072 18.8008ZM20.5891 4.10742L19.9117 4.55899L18.0233 4.18115L16.7982 3.77332C16.7232 3.74786 16.6425 3.74463 16.5657 3.76416L15.0169 4.15116L14.3379 3.92496L14.8411 2.9185H16.25C16.3146 2.91855 16.3783 2.90361 16.4362 2.87476L17.8775 2.15408C18.8701 2.6722 19.7833 3.32998 20.5891 4.10742ZM7.93793 1.76582L8.93773 2.43235C8.98688 2.46505 9.04239 2.48692 9.10061 2.49651L11.1194 2.8331L10.9223 3.42256L9.87045 3.77374C9.77625 3.80509 9.69632 3.86903 9.64508 3.95412L8.44866 5.94787L6.52698 7.10096L3.69423 7.50546C3.48891 7.53447 3.33623 7.71011 3.33597 7.91746V9.1672C3.33597 9.2777 3.37992 9.38361 3.45803 9.46172L4.16913 10.1728V10.8885L2.43616 9.73291L1.80754 7.84706C3.00354 5.11429 5.19564 2.93975 7.93793 1.76582ZM6.75193 15.4242L4.86899 15.0472L4.16913 13.6513V12.6723L5.72131 11.1201L6.29577 12.2695C6.36633 12.4107 6.51073 12.4999 6.66861 12.4998H9.34889L10.4774 14.3807C10.5527 14.506 10.6882 14.5827 10.8344 14.5827H11.9925L11.7009 16.0437L10.1237 17.6209C10.0455 17.6989 10.0014 17.8048 10.0013 17.9154V18.9568L8.50157 20.0816C8.39669 20.1603 8.33493 20.2837 8.33493 20.4149V21.9195L7.81671 21.7479L7.08519 19.9183V15.8325C7.08525 15.6345 6.9459 15.4638 6.75193 15.4242ZM5.49969 21.8282C1.57191 18.8814 -0.0891489 13.79 1.34514 9.09388L1.69131 10.132C1.72048 10.2198 1.77807 10.2955 1.85503 10.347L3.93168 11.7312L3.45803 12.2053C3.37992 12.2834 3.33597 12.3893 3.33597 12.4998V13.7496C3.33592 13.8142 3.35087 13.8779 3.37971 13.9358L4.21287 15.6021C4.27057 15.7172 4.3782 15.7992 4.50448 15.8241L6.25412 16.1737V19.9983C6.25406 20.0512 6.26411 20.1037 6.28369 20.1528L7.11685 22.2357C7.16247 22.3495 7.25589 22.4375 7.37222 22.4761L8.62196 22.8927C8.66372 22.9068 8.70746 22.9141 8.75151 22.9143C8.98157 22.9143 9.16809 22.7278 9.16809 22.4978V20.6231L10.6678 19.4984C10.7727 19.4197 10.8344 19.2962 10.8344 19.1651V18.0878L12.3787 16.5436C12.4367 16.4854 12.4763 16.4113 12.4924 16.3307L12.909 14.2478C12.9541 14.0222 12.8078 13.8027 12.5821 13.7576C12.5553 13.7523 12.5281 13.7496 12.5007 13.7496H11.0702L9.94168 11.8687C9.86639 11.7434 9.73089 11.6667 9.58467 11.6667H6.92606L6.21038 10.2307C6.15044 10.1109 6.03651 10.0271 5.90419 10.0058C5.77192 9.98291 5.6369 10.0265 5.54301 10.1224L5.00229 10.6611V10.0004C5.00229 9.88986 4.95834 9.78394 4.88024 9.70584L4.16913 8.99473V8.27863L6.72777 7.91329C6.7827 7.90533 6.83556 7.88648 6.88315 7.85789L8.96605 6.60815C9.02448 6.57305 9.07343 6.5241 9.10852 6.46568L10.2791 4.51483L11.3826 4.14658C11.5072 4.1057 11.605 4.00796 11.6459 3.8833L12.0625 2.63356C12.1347 2.41512 12.0161 2.17949 11.7977 2.10732C11.7775 2.10065 11.7568 2.09555 11.7359 2.09201L9.32473 1.69001L8.90107 1.40757C11.5226 0.554306 14.3619 0.659909 16.9127 1.70542L16.1516 2.08534H14.5836C14.425 2.08446 14.2796 2.17381 14.2087 2.31571L13.3756 3.98203C13.2729 4.18792 13.3566 4.43808 13.5625 4.54071C13.58 4.54946 13.5982 4.55696 13.6168 4.56316L14.8665 4.97974C14.9415 5.0052 15.0222 5.00843 15.0989 4.9889L16.6478 4.6019L17.7826 4.97974C17.7988 4.98557 17.8155 4.99005 17.8325 4.99307L19.9154 5.40965C20.0238 5.43173 20.1364 5.40954 20.2283 5.34799L21.1764 4.71563C21.6431 5.23536 22.0624 5.79566 22.4295 6.38986L20.3799 7.07305L18.1608 6.70313L17.4276 5.60336C17.3508 5.48812 17.2216 5.41866 17.0831 5.41798H14.5836C14.4731 5.41798 14.3672 5.46193 14.2891 5.54004L13.0394 6.78978C12.9466 6.88252 12.9029 7.01358 12.9215 7.14345L13.3381 10.0595C13.359 10.2037 13.4538 10.3264 13.588 10.3832L16.5041 11.6329C16.5876 11.6691 16.6808 11.6766 16.769 11.6542L18.2566 11.2822L19.166 11.8895V13.333C19.1653 13.3975 19.1796 13.4612 19.2077 13.5192L20.8323 16.7639V18.332C20.8323 18.4425 20.8763 18.5484 20.9544 18.6265L21.8259 19.4984C17.9609 24.6501 10.6514 25.6932 5.49969 21.8282Z" fill="white"/>
</svg>
